<?xml version="1.0" encoding="UTF-8" standalone="no"?>
<!-- Created with Inkscape (http://www.inkscape.org/) -->

<svg
   xmlns:dc="http://purl.org/dc/elements/1.1/"
   xmlns:cc="http://creativecommons.org/ns#"
   xmlns:rdf="http://www.w3.org/1999/02/22-rdf-syntax-ns#"
   xmlns:svg="http://www.w3.org/2000/svg"
   xmlns="http://www.w3.org/2000/svg"
   xmlns:sodipodi="http://sodipodi.sourceforge.net/DTD/sodipodi-0.dtd"
   xmlns:inkscape="http://www.inkscape.org/namespaces/inkscape"
   width="1500"
   height="1000"
   id="svg3012"
   version="1.1"
   inkscape:version="0.48.4 r9939"
   sodipodi:docname="board.svg"
   inkscape:export-filename="/home/main/sandbox/Turtles/board.png"
   inkscape:export-xdpi="90"
   inkscape:export-ydpi="90">
  <defs
     id="defs3014" />
  <sodipodi:namedview
     id="base"
     pagecolor="#ffffff"
     bordercolor="#666666"
     borderopacity="1.0"
     inkscape:pageopacity="0.0"
     inkscape:pageshadow="2"
     inkscape:zoom="0.42426407"
     inkscape:cx="1477.7552"
     inkscape:cy="600"
     inkscape:current-layer="layer1"
     inkscape:document-units="px"
     showgrid="false"
     inkscape:window-width="1678"
     inkscape:window-height="1030"
     inkscape:window-x="0"
     inkscape:window-y="18"
     inkscape:window-maximized="0" />
  <metadata
     id="metadata3017">
    <rdf:RDF>
      <cc:Work
         rdf:about="">
        <dc:format>image/svg+xml</dc:format>
        <dc:type
           rdf:resource="http://purl.org/dc/dcmitype/StillImage" />
        <dc:title></dc:title>
      </cc:Work>
    </rdf:RDF>
  </metadata>
  <g
     id="layer1"
     inkscape:label="Layer 1"
     inkscape:groupmode="layer"
     transform="translate(0,-200)">
    <path
       style="fill:#ffffff;fill-opacity:1;fill-rule:evenodd;stroke:#000000;stroke-width:23.83130264;stroke-linecap:butt;stroke-linejoin:miter;stroke-miterlimit:4;stroke-opacity:1;stroke-dasharray:none;stroke-dashoffset:0"
       d="m 129.6224,392.10751 c -55.666645,0 -100.785195,131.10662 -100.785195,292.86494 0,161.7583 45.11855,292.92 100.785195,292.92 55.66666,0 100.81629,-131.1617 100.81629,-292.92 0,-161.75832 -45.14963,-292.86494 -100.81629,-292.86494 z"
       id="path3020"
       inkscape:connector-curvature="0" />
    <path
       id="path3799"
       d="m 318.18751,788.24747 c -43.86333,0 -79.41514,63.51062 -79.41514,141.86953 0,78.3589 35.55181,141.8961 79.41514,141.8961 43.86334,0 79.43963,-63.5372 79.43963,-141.8961 0,-78.35891 -35.57629,-141.86953 -79.43963,-141.86953 z"
       style="fill:#ffffff;fill-opacity:1;fill-rule:evenodd;stroke:#000000;stroke-width:14.72352791;stroke-linecap:butt;stroke-linejoin:miter;stroke-miterlimit:4;stroke-opacity:1;stroke-dasharray:none;stroke-dashoffset:0"
       inkscape:connector-curvature="0" />
    <flowRoot
       xml:space="preserve"
       id="flowRoot3813"
       style="font-size:40px;font-style:normal;font-weight:normal;line-height:125%;letter-spacing:0px;word-spacing:0px;fill:#000000;fill-opacity:1;stroke:none;font-family:Sans"
       transform="translate(4.7140455,80.138769)"><flowRegion
         id="flowRegion3815"><rect
           id="rect3817"
           width="219.20311"
           height="75.424721"
           x="73.067703"
           y="217.12157" /></flowRegion><flowPara
         id="flowPara3819">Start</flowPara><flowPara
         id="flowPara3821" /></flowRoot>    <flowRoot
       xml:space="preserve"
       id="flowRoot3833"
       style="font-size:40px;font-style:normal;font-weight:normal;line-height:125%;letter-spacing:0px;word-spacing:0px;fill:#000000;fill-opacity:1;stroke:none;font-family:Sans"><flowRegion
         id="flowRegion3835"><rect
           id="rect3837"
           width="921.59583"
           height="84.852814"
           x="344.12531"
           y="52.129993" /></flowRegion><flowPara
         id="flowPara3839" /></flowRoot>    <text
       xml:space="preserve"
       style="font-size:40px;font-style:normal;font-weight:normal;line-height:125%;letter-spacing:0px;word-spacing:0px;fill:#000000;fill-opacity:1;stroke:none;font-family:Sans"
       x="923.95288"
       y="94.556396"
       id="text3841"
       sodipodi:linespacing="125%"><tspan
         sodipodi:role="line"
         id="tspan3843"
         x="923.95288"
         y="94.556396" /></text>
    <flowRoot
       xml:space="preserve"
       id="flowRoot3845"
       style="font-size:40px;font-style:normal;font-weight:normal;line-height:125%;letter-spacing:0px;word-spacing:0px;fill:#000000;fill-opacity:1;stroke:none;font-family:Sans"><flowRegion
         id="flowRegion3847"><rect
           id="rect3849"
           width="796.67365"
           height="80.138771"
           x="431.33514"
           y="59.201061" /></flowRegion><flowPara
         id="flowPara3851" /></flowRoot>    <flowRoot
       xml:space="preserve"
       id="flowRoot3853"
       style="font-size:40px;font-style:normal;font-weight:normal;line-height:125%;letter-spacing:0px;word-spacing:0px;fill:#000000;fill-opacity:1;stroke:none;font-family:Sans"
       transform="matrix(1.5071483,0,0,2.4004187,78.503276,745.75806)"><flowRegion
         id="flowRegion3855"><rect
           id="rect3857"
           width="758.9613"
           height="94.280907"
           x="445.47726"
           y="75.700218" /></flowRegion><flowPara
         id="flowPara3859">Run for your life.</flowPara></flowRoot>    <flowRoot
       transform="translate(-18.856186,108.42304)"
       style="font-size:40px;font-style:normal;font-weight:normal;line-height:125%;letter-spacing:0px;word-spacing:0px;fill:#000000;fill-opacity:1;stroke:none;font-family:Sans"
       id="flowRoot3101"
       xml:space="preserve"><flowRegion
         id="flowRegion3103"><rect
           y="344.40079"
           x="1376.5012"
           height="70.710678"
           width="181.49074"
           id="rect3105" /></flowRegion><flowPara
         id="flowPara3107">Meta</flowPara><flowPara
         id="flowPara3109" /></flowRoot>    <path
       inkscape:connector-curvature="0"
       style="fill:#ffffff;fill-opacity:1;fill-rule:evenodd;stroke:#000000;stroke-width:14.72352791;stroke-linecap:butt;stroke-linejoin:miter;stroke-miterlimit:4;stroke-opacity:1;stroke-dasharray:none;stroke-dashoffset:0"
       d="m 497.32123,665.68229 c -43.86333,0 -79.41514,63.51062 -79.41514,141.86953 0,78.3589 35.55181,141.8961 79.41514,141.8961 43.86334,0 79.43963,-63.5372 79.43963,-141.8961 0,-78.35891 -35.57629,-141.86953 -79.43963,-141.86953 z"
       id="path3121" />
    <path
       id="path3123"
       d="m 655.24174,479.4775 c -43.86333,0 -79.41514,63.51062 -79.41514,141.86953 0,78.3589 35.55181,141.8961 79.41514,141.8961 43.86334,0 79.43963,-63.5372 79.43963,-141.8961 0,-78.35891 -35.57629,-141.86953 -79.43963,-141.86953 z"
       style="fill:#ffffff;fill-opacity:1;fill-rule:evenodd;stroke:#000000;stroke-width:14.72352791;stroke-linecap:butt;stroke-linejoin:miter;stroke-miterlimit:4;stroke-opacity:1;stroke-dasharray:none;stroke-dashoffset:0"
       inkscape:connector-curvature="0" />
    <path
       inkscape:connector-curvature="0"
       style="fill:#ffffff;fill-opacity:1;fill-rule:evenodd;stroke:#000000;stroke-width:14.72352791;stroke-linecap:butt;stroke-linejoin:miter;stroke-miterlimit:4;stroke-opacity:1;stroke-dasharray:none;stroke-dashoffset:0"
       d="m 839.0895,354.5553 c -43.86333,0 -79.41514,63.51062 -79.41514,141.86953 0,78.3589 35.55181,141.8961 79.41514,141.8961 43.86334,0 79.43963,-63.5372 79.43963,-141.8961 0,-78.35891 -35.57629,-141.86953 -79.43963,-141.86953 z"
       id="path3125" />
    <path
       id="path3127"
       d="m 1032.3654,387.55362 c -43.86338,0 -79.41519,63.51062 -79.41519,141.86953 0,78.3589 35.55181,141.8961 79.41519,141.8961 43.8633,0 79.4396,-63.5372 79.4396,-141.8961 0,-78.35891 -35.5763,-141.86953 -79.4396,-141.86953 z"
       style="fill:#ffffff;fill-opacity:1;fill-rule:evenodd;stroke:#000000;stroke-width:14.72352791;stroke-linecap:butt;stroke-linejoin:miter;stroke-miterlimit:4;stroke-opacity:1;stroke-dasharray:none;stroke-dashoffset:0"
       inkscape:connector-curvature="0" />
    <path
       inkscape:connector-curvature="0"
       style="fill:#ffffff;fill-opacity:1;fill-rule:evenodd;stroke:#000000;stroke-width:14.72352791;stroke-linecap:butt;stroke-linejoin:miter;stroke-miterlimit:4;stroke-opacity:1;stroke-dasharray:none;stroke-dashoffset:0"
       d="m 1213.8561,495.97666 c -43.8633,0 -79.4152,63.51062 -79.4152,141.86953 0,78.3589 35.5519,141.8961 79.4152,141.8961 43.8633,0 79.4396,-63.5372 79.4396,-141.8961 0,-78.35891 -35.5763,-141.86953 -79.4396,-141.86953 z"
       id="path3129" />
    <path
       id="path3131"
       d="m 1404.7749,545.47413 c -43.8633,0 -79.4152,63.51062 -79.4152,141.86953 0,78.3589 35.5519,141.8961 79.4152,141.8961 43.8633,0 79.4396,-63.5372 79.4396,-141.8961 0,-78.35891 -35.5763,-141.86953 -79.4396,-141.86953 z"
       style="fill:#ffffff;fill-opacity:1;fill-rule:evenodd;stroke:#000000;stroke-width:14.72352791;stroke-linecap:butt;stroke-linejoin:miter;stroke-miterlimit:4;stroke-opacity:1;stroke-dasharray:none;stroke-dashoffset:0"
       inkscape:connector-curvature="0" />
  </g>
</svg>
