<?xml version="1.0" encoding="UTF-8" standalone="no"?>
<!-- Created with Inkscape (http://www.inkscape.org/) -->

<svg
   xmlns:dc="http://purl.org/dc/elements/1.1/"
   xmlns:cc="http://creativecommons.org/ns#"
   xmlns:rdf="http://www.w3.org/1999/02/22-rdf-syntax-ns#"
   xmlns:svg="http://www.w3.org/2000/svg"
   xmlns="http://www.w3.org/2000/svg"
   xmlns:sodipodi="http://sodipodi.sourceforge.net/DTD/sodipodi-0.dtd"
   xmlns:inkscape="http://www.inkscape.org/namespaces/inkscape"
   width="2400"
   height="1200"
   id="svg3012"
   version="1.1"
   inkscape:version="0.48.4 r9939"
   sodipodi:docname="drawing.svg"
   inkscape:export-filename="/home/main/sandbox/Turtles/drawing.png"
   inkscape:export-xdpi="90"
   inkscape:export-ydpi="90">
  <defs
     id="defs3014" />
  <sodipodi:namedview
     id="base"
     pagecolor="#ffffff"
     bordercolor="#666666"
     borderopacity="1.0"
     inkscape:pageopacity="0.0"
     inkscape:pageshadow="2"
     inkscape:zoom="0.42426407"
     inkscape:cx="1477.7552"
     inkscape:cy="600"
     inkscape:current-layer="layer1"
     inkscape:document-units="px"
     showgrid="false"
     inkscape:window-width="1678"
     inkscape:window-height="1030"
     inkscape:window-x="0"
     inkscape:window-y="18"
     inkscape:window-maximized="0" />
  <metadata
     id="metadata3017">
    <rdf:RDF>
      <cc:Work
         rdf:about="">
        <dc:format>image/svg+xml</dc:format>
        <dc:type
           rdf:resource="http://purl.org/dc/dcmitype/StillImage" />
        <dc:title></dc:title>
      </cc:Work>
    </rdf:RDF>
  </metadata>
  <g
     id="layer1"
     inkscape:label="Layer 1"
     inkscape:groupmode="layer">
    <path
       style="fill:#ffffff;fill-opacity:1;fill-rule:evenodd;stroke:#000000;stroke-width:27.31674385;stroke-linecap:butt;stroke-linejoin:miter;stroke-miterlimit:4;stroke-opacity:1;stroke-dasharray:none;stroke-dashoffset:0"
       d="m 175.57934,327.8536 c -73.5782,0 -133.214301,130.32653 -133.214301,291.12238 0,160.79584 59.636101,291.17712 133.214301,291.17712 73.57821,0 133.25539,-130.38128 133.25539,-291.17712 0,-160.79585 -59.67718,-291.12238 -133.25539,-291.12238 z"
       id="path3020"
       inkscape:connector-curvature="0" />
    <path
       id="path3799"
       d="m 459.60549,492.90086 c -55.97515,0 -101.34375,74.38304 -101.34375,166.15625 0,91.77321 45.3686,166.1875 101.34375,166.1875 55.97515,0 101.375,-74.41429 101.375,-166.1875 0,-91.77321 -45.39985,-166.15625 -101.375,-166.15625 z"
       style="fill:#ffffff;fill-opacity:1;fill-rule:evenodd;stroke:#000000;stroke-width:18;stroke-linecap:butt;stroke-linejoin:miter;stroke-miterlimit:4;stroke-opacity:1;stroke-dasharray:none;stroke-dashoffset:0"
       inkscape:connector-curvature="0" />
    <path
       inkscape:connector-curvature="0"
       style="fill:#ffffff;fill-opacity:1;fill-rule:evenodd;stroke:#000000;stroke-width:18;stroke-linecap:butt;stroke-linejoin:miter;stroke-miterlimit:4;stroke-opacity:1;stroke-dasharray:none;stroke-dashoffset:0"
       d="m 714.16393,528.25619 c -55.97515,0 -101.34375,74.38304 -101.34375,166.15625 0,91.77321 45.3686,166.1875 101.34375,166.1875 55.97515,0 101.375,-74.41429 101.375,-166.1875 0,-91.77321 -45.39985,-166.15625 -101.375,-166.15625 z"
       id="path3805" />
    <path
       id="path3807"
       d="m 949.86619,396.26293 c -55.97515,0 -101.34375,74.38304 -101.34375,166.15625 0,91.77321 45.3686,166.1875 101.34375,166.1875 55.97521,0 101.37501,-74.41429 101.37501,-166.1875 0,-91.77321 -45.3998,-166.15625 -101.37501,-166.15625 z"
       style="fill:#ffffff;fill-opacity:1;fill-rule:evenodd;stroke:#000000;stroke-width:18;stroke-linecap:butt;stroke-linejoin:miter;stroke-miterlimit:4;stroke-opacity:1;stroke-dasharray:none;stroke-dashoffset:0"
       inkscape:connector-curvature="0" />
    <path
       inkscape:connector-curvature="0"
       style="fill:#ffffff;fill-opacity:1;fill-rule:evenodd;stroke:#000000;stroke-width:18;stroke-linecap:butt;stroke-linejoin:miter;stroke-miterlimit:4;stroke-opacity:1;stroke-dasharray:none;stroke-dashoffset:0"
       d="m 1183.2114,278.41181 c -55.9751,0 -101.3437,74.38304 -101.3437,166.15625 0,91.77321 45.3686,166.1875 101.3437,166.1875 55.9752,0 101.375,-74.41429 101.375,-166.1875 0,-91.77321 -45.3998,-166.15625 -101.375,-166.15625 z"
       id="path3809" />
    <path
       id="path3811"
       d="m 1416.5567,146.41854 c -55.9751,0 -101.3437,74.38304 -101.3437,166.15625 0,91.77321 45.3686,166.1875 101.3437,166.1875 55.9752,0 101.375,-74.41429 101.375,-166.1875 0,-91.77321 -45.3998,-166.15625 -101.375,-166.15625 z"
       style="fill:#ffffff;fill-opacity:1;fill-rule:evenodd;stroke:#000000;stroke-width:18;stroke-linecap:butt;stroke-linejoin:miter;stroke-miterlimit:4;stroke-opacity:1;stroke-dasharray:none;stroke-dashoffset:0"
       inkscape:connector-curvature="0" />
    <flowRoot
       xml:space="preserve"
       id="flowRoot3813"
       style="font-size:40px;font-style:normal;font-weight:normal;line-height:125%;letter-spacing:0px;word-spacing:0px;fill:#000000;fill-opacity:1;stroke:none;font-family:Sans"
       transform="translate(42.426407,7.0710682)"><flowRegion
         id="flowRegion3815"><rect
           id="rect3817"
           width="219.20311"
           height="75.424721"
           x="73.067703"
           y="217.12157" /></flowRegion><flowPara
         id="flowPara3819">Start</flowPara><flowPara
         id="flowPara3821" /></flowRoot>    <flowRoot
       xml:space="preserve"
       id="flowRoot3823"
       style="font-size:40px;font-style:normal;font-weight:normal;line-height:125%;letter-spacing:0px;word-spacing:0px;fill:#000000;fill-opacity:1;stroke:none;font-family:Sans"
       transform="translate(839.10004,-16.499163)"><flowRegion
         id="flowRegion3825"><rect
           id="rect3827"
           width="181.49074"
           height="70.710678"
           x="1376.5012"
           y="344.40079" /></flowRegion><flowPara
         id="flowPara3829">Meta</flowPara><flowPara
         id="flowPara3831" /></flowRoot>    <flowRoot
       xml:space="preserve"
       id="flowRoot3833"
       style="font-size:40px;font-style:normal;font-weight:normal;line-height:125%;letter-spacing:0px;word-spacing:0px;fill:#000000;fill-opacity:1;stroke:none;font-family:Sans"><flowRegion
         id="flowRegion3835"><rect
           id="rect3837"
           width="921.59583"
           height="84.852814"
           x="344.12531"
           y="52.129993" /></flowRegion><flowPara
         id="flowPara3839" /></flowRoot>    <text
       xml:space="preserve"
       style="font-size:40px;font-style:normal;font-weight:normal;line-height:125%;letter-spacing:0px;word-spacing:0px;fill:#000000;fill-opacity:1;stroke:none;font-family:Sans"
       x="923.95288"
       y="94.556396"
       id="text3841"
       sodipodi:linespacing="125%"><tspan
         sodipodi:role="line"
         id="tspan3843"
         x="923.95288"
         y="94.556396" /></text>
    <flowRoot
       xml:space="preserve"
       id="flowRoot3845"
       style="font-size:40px;font-style:normal;font-weight:normal;line-height:125%;letter-spacing:0px;word-spacing:0px;fill:#000000;fill-opacity:1;stroke:none;font-family:Sans"><flowRegion
         id="flowRegion3847"><rect
           id="rect3849"
           width="796.67365"
           height="80.138771"
           x="431.33514"
           y="59.201061" /></flowRegion><flowPara
         id="flowPara3851" /></flowRoot>    <flowRoot
       xml:space="preserve"
       id="flowRoot3853"
       style="font-size:40px;font-style:normal;font-weight:normal;line-height:125%;letter-spacing:0px;word-spacing:0px;fill:#000000;fill-opacity:1;stroke:none;font-family:Sans"
       transform="matrix(1.5071483,0,0,2.4004187,417.91453,684.47547)"><flowRegion
         id="flowRegion3855"><rect
           id="rect3857"
           width="758.9613"
           height="94.280907"
           x="445.47726"
           y="75.700218" /></flowRegion><flowPara
         id="flowPara3859">Run for your life.</flowPara></flowRoot>    <path
       inkscape:connector-curvature="0"
       style="fill:#ffffff;fill-opacity:1;fill-rule:evenodd;stroke:#000000;stroke-width:18;stroke-linecap:butt;stroke-linejoin:miter;stroke-miterlimit:4;stroke-opacity:1;stroke-dasharray:none;stroke-dashoffset:0"
       d="m 1682.9002,70.993816 c -55.9751,0 -101.3437,74.383044 -101.3437,166.156254 0,91.77321 45.3686,166.1875 101.3437,166.1875 55.9752,0 101.375,-74.41429 101.375,-166.1875 0,-91.77321 -45.3998,-166.156254 -101.375,-166.156254 z"
       id="path3093" />
    <path
       id="path3095"
       d="m 1857.3199,356.19354 c -55.9751,0 -101.3437,74.38304 -101.3437,166.15625 0,91.77321 45.3686,166.1875 101.3437,166.1875 55.9752,0 101.375,-74.41429 101.375,-166.1875 0,-91.77321 -45.3998,-166.15625 -101.375,-166.15625 z"
       style="fill:#ffffff;fill-opacity:1;fill-rule:evenodd;stroke:#000000;stroke-width:18;stroke-linecap:butt;stroke-linejoin:miter;stroke-miterlimit:4;stroke-opacity:1;stroke-dasharray:none;stroke-dashoffset:0"
       inkscape:connector-curvature="0" />
    <path
       inkscape:connector-curvature="0"
       style="fill:#ffffff;fill-opacity:1;fill-rule:evenodd;stroke:#000000;stroke-width:18;stroke-linecap:butt;stroke-linejoin:miter;stroke-miterlimit:4;stroke-opacity:1;stroke-dasharray:none;stroke-dashoffset:0"
       d="m 2267.4418,405.69102 c -55.9751,0 -101.3437,74.38304 -101.3437,166.15625 0,91.77321 45.3686,166.1875 101.3437,166.1875 55.9752,0 101.375,-74.41429 101.375,-166.1875 0,-91.77321 -45.3998,-166.15625 -101.375,-166.15625 z"
       id="path3097" />
    <path
       id="path3099"
       d="m 2050.5957,587.18176 c -55.9751,0 -101.3437,74.38304 -101.3437,166.15625 0,91.77321 45.3686,166.1875 101.3437,166.1875 55.9752,0 101.375,-74.41429 101.375,-166.1875 0,-91.77321 -45.3998,-166.15625 -101.375,-166.15625 z"
       style="fill:#ffffff;fill-opacity:1;fill-rule:evenodd;stroke:#000000;stroke-width:18;stroke-linecap:butt;stroke-linejoin:miter;stroke-miterlimit:4;stroke-opacity:1;stroke-dasharray:none;stroke-dashoffset:0"
       inkscape:connector-curvature="0" />
  </g>
</svg>
